<svg width="750" height="999.9999999999999" xmlns="http://www.w3.org/2000/svg" version="1.1" class="icon">
 <defs>
  <filter id="svg_6_blur">
   <feGaussianBlur stdDeviation="0" in="SourceGraphic"/>
  </filter>
 </defs>
 <g>
  <title>Layer 1</title>
  <path id="svg_3" fill="#6FB0BE" d="m567.23772,925.35229c0,42.24 -21.76,51.2 -64,51.2l-358.4,0c-42.24,0 -64,-8.96 -64,-51.2l0,-588.8c0,-42.24 34.56,-38.4 76.8,-38.4l332.8,0c42.24,0 76.8,-3.84 76.8,38.4l0,588.8z"/>
  <path id="svg_4" fill="#231C1C" d="m503.23772,989.35229l-358.4,0c-39.68,0 -76.8,-7.68 -76.8,-64l0,-588.8c0,-16.64 3.84,-28.16 12.8,-37.12c15.36,-15.36 38.4,-15.36 66.56,-14.08l353.28,0c28.16,0 51.2,0 66.56,14.08c8.96,8.96 12.8,20.48 12.8,37.12l0,588.8c0,56.32 -37.12,64 -76.8,64zm-364.8,-678.4c-17.92,0 -33.28,1.28 -39.68,7.68c-3.84,2.56 -5.12,8.96 -5.12,17.92l0,588.8c0,30.72 10.24,38.4 51.2,38.4l358.4,0c40.96,0 51.2,-7.68 51.2,-38.4l0,-588.8c0,-8.96 -1.28,-15.36 -5.12,-17.92c-7.68,-7.68 -28.16,-7.68 -48.64,-7.68l-362.24,0z"/>
  <path id="svg_7" fill="#231C1C" d="m311.23772,464.55229l25.6,0l0,384l-25.6,0l0,-384z"/>
  <path id="svg_8" fill="#231C1C" d="m452.03772,490.15229l25.6,0l0,345.6l-25.6,0l0,-345.6z"/>
  <path id="svg_9" fill="#231C1C" d="m80.83772,374.95229l486.4,0l0,25.6l-486.4,0l0,-25.6z"/>
  <path id="svg_10" fill="#231C1C" d="m171.63769,490.55229l25.6,0l0,345.6l-25.6,0l0,-345.6z"/>
  <rect rx="50" stroke="null" id="svg_18" height="243.47827" width="223.18841" y="534.78261" x="210.50725" fill="#9cbbc1"/>
  <g stroke="null">
   <g stroke="null">
    <g stroke="null">
     <path stroke="null" d="m366.17512,652.44401c-0.52002,-1.88133 -2.72474,-3.04472 -4.92589,-2.6019c-2.20115,0.44457 -3.56403,2.33027 -3.04401,4.21203c0.6983,2.52722 1.0523,5.13872 1.0523,7.76246c0,11.49367 -6.69692,21.78946 -17.29246,27.88283l0.49857,-0.59741c1.31333,-1.57433 0.88526,-3.76048 -0.95627,-4.88325s-4.39872,-0.75681 -5.71205,0.81751l-9.14888,10.96657c-0.81936,0.98259 -0.98998,2.25734 -0.44953,3.37268s1.71433,1.91365 3.10684,2.11322l15.53982,2.22502c0.22885,0.03275 0.45668,0.04847 0.68144,0.04847c1.96463,0 3.69889,-1.21186 4.03399,-2.92288c0.37341,-1.90666 -1.13199,-3.712 -3.36225,-4.03124l-1.68879,-0.24194c4.75221,-2.45909 9.013,-5.62172 12.51982,-9.36255c6.7194,-7.1681 10.41982,-16.18434 10.41982,-25.38749c-0.00102,-3.16481 -0.42909,-6.31827 -1.27247,-9.37216z"/>
    </g>
   </g>
   <g stroke="null">
    <g stroke="null">
     <path stroke="null" d="m310.84762,694.53944c-16.65955,-3.36395 -28.61695,-15.35547 -30.09324,-29.71525l0.44391,0.77122c0.7126,1.23763 2.16539,1.95557 3.67692,1.95513c0.60737,0 1.22394,-0.11616 1.80577,-0.36072c2.029,-0.8542 2.86369,-2.95257 1.86502,-4.68761l-6.96,-12.08497c-0.62372,-1.08303 -1.85583,-1.81495 -3.2606,-1.93679c-1.40477,-0.12053 -2.784,0.38386 -3.64883,1.33763l-9.65613,10.64428c-1.38638,1.5276 -1.06098,3.72685 0.72639,4.91164c1.78687,1.18522 4.35938,0.90748 5.74525,-0.621l0.97006,-1.06949c0.46485,8.54896 4.10193,16.83721 10.36516,23.51969c6.6157,7.05761 15.89791,12.08279 26.13792,14.1506c0.31671,0.06376 0.63291,0.09433 0.94452,0.09433c1.85532,0 3.53696,-1.08565 3.98188,-2.69666c0.52002,-1.88177 -0.84286,-3.76747 -3.04401,-4.21203z"/>
    </g>
   </g>
   <g stroke="null">
    <g stroke="null">
     <path stroke="null" d="m360.38083,640.89443l-2.71861,-13.26801c-0.38976,-1.90448 -2.51071,-3.17748 -4.74046,-2.84471c-2.22771,0.33364 -3.71728,2.14816 -3.32752,4.05263l0.29372,1.4324c-8.37958,-5.84138 -18.86529,-9.07563 -29.96093,-9.07563c-14.72556,0 -28.37891,5.69465 -37.45781,15.62404c-1.39302,1.52367 -1.07784,3.7238 0.70443,4.91426c0.74938,0.50047 1.63771,0.74327 2.51939,0.74327c1.2173,0 2.42182,-0.4616 3.22893,-1.34462c7.51629,-8.21969 18.81728,-12.93437 31.00506,-12.93437c8.43884,0 16.45113,2.2617 23.07756,6.38028l-0.66663,-0.16376c-2.17356,-0.53497 -4.44265,0.53802 -5.06739,2.39664c-0.62576,1.85775 0.62934,3.79804 2.80341,4.33213l15.14138,3.72467c0.3729,0.09215 0.75347,0.13625 1.13199,0.13625c0.99764,0 1.97587,-0.31181 2.737,-0.89656c1.04924,-0.80703 1.53963,-2.01977 1.29647,-3.20892z"/>
    </g>
   </g>
   <g stroke="null">
    <g stroke="null">
     <path stroke="null" d="m383.05688,572.6333c-2.26909,-2.05907 -8.19211,-7.6952 -11.41695,-13.20906c-0.69319,-1.18609 -2.11124,-1.93548 -3.66262,-1.93548l-55.54614,0l-25.17705,-14.3493c-1.88137,-1.07211 -4.42477,-0.63803 -5.67834,0.9708c-1.25459,1.60839 -0.74632,3.78231 1.13556,4.85443l14.95544,8.52363l-25.78902,0c-1.55138,0 -2.96943,0.74939 -3.66262,1.93548c-3.21462,5.49595 -9.14735,11.14606 -11.41899,13.20993c-3.71421,0.76424 -6.48595,3.62073 -6.48595,7.02748l0,164.31077c0,3.40718 2.77276,6.26455 6.48799,7.02792c2.26909,2.05907 8.19211,7.6952 11.41746,13.20906c0.69319,1.18609 2.11124,1.93548 3.66262,1.93548l96.09903,0c1.55138,0 2.96943,-0.74939 3.66262,-1.93548c3.21462,-5.49639 9.14735,-11.14649 11.41899,-13.20993c3.71472,-0.76424 6.48595,-3.62073 6.48595,-7.02748l0,-164.31033c-0.00051,-3.40762 -2.77225,-6.26455 -6.48799,-7.02792zm-108.73277,-8.14283l91.20686,0c1.92837,2.87615 4.29451,5.63919 6.45837,7.93539l-104.12308,0c2.16335,-2.2962 4.53,-5.05881 6.45786,-7.93539zm91.20635,194.65225l-91.20635,0c-1.92837,-2.87615 -4.29451,-5.63919 -6.45837,-7.93539l104.12257,0c-2.16283,2.2962 -4.52898,5.05881 -6.45786,7.93539zm15.82384,-15.17074c0,0.12883 -0.12209,0.2332 -0.27278,0.2332l-122.30796,0c-0.15069,0 -0.27278,-0.10437 -0.27278,-0.2332l0,-164.31077c0,-0.12883 0.12209,-0.2332 0.27278,-0.2332l122.30796,0c0.15069,0 0.27278,0.10437 0.27278,0.2332l0,164.31077z"/>
    </g>
   </g>
  </g>
  <g transform="rotate(85 650.125 316.166)" id="svg_20">
   <path stroke="null" id="svg_1" fill="#EEBE00" d="m560.52466,277.09722l179.2,0l0,76.8l-179.2,0l0,-76.8z"/>
   <path stroke="null" id="svg_2" fill="#231C1C" d="m752.52466,366.69722l-204.8,0l0,-102.4l204.8,0l0,102.4zm-179.2,-25.6l153.6,0l0,-51.2l-153.6,0l0,51.2z"/>
   <path stroke="null" filter="url(#svg_6_blur)" id="svg_6" fill="#231C1C" d="m355.72466,329.63467l588.8,0l0,38.4l-588.8,0l0,-38.4z"/>
  </g>
 </g>
</svg>