<svg width="750" height="999.9999999999999" xmlns="http://www.w3.org/2000/svg" version="1.1" class="icon">
 <defs>
  <filter id="svg_6_blur">
   <feGaussianBlur stdDeviation="0" in="SourceGraphic"/>
  </filter>
 </defs>
 <g>
  <title>Layer 1</title>
  <path id="svg_3" fill="#6FB0BE" d="m567.23772,925.35229c0,42.24 -21.76,51.2 -64,51.2l-358.4,0c-42.24,0 -64,-8.96 -64,-51.2l0,-588.8c0,-42.24 34.56,-38.4 76.8,-38.4l332.8,0c42.24,0 76.8,-3.84 76.8,38.4l0,588.8z"/>
  <path id="svg_4" fill="#231C1C" d="m503.23772,989.35229l-358.4,0c-39.68,0 -76.8,-7.68 -76.8,-64l0,-588.8c0,-16.64 3.84,-28.16 12.8,-37.12c15.36,-15.36 38.4,-15.36 66.56,-14.08l353.28,0c28.16,0 51.2,0 66.56,14.08c8.96,8.96 12.8,20.48 12.8,37.12l0,588.8c0,56.32 -37.12,64 -76.8,64zm-364.8,-678.4c-17.92,0 -33.28,1.28 -39.68,7.68c-3.84,2.56 -5.12,8.96 -5.12,17.92l0,588.8c0,30.72 10.24,38.4 51.2,38.4l358.4,0c40.96,0 51.2,-7.68 51.2,-38.4l0,-588.8c0,-8.96 -1.28,-15.36 -5.12,-17.92c-7.68,-7.68 -28.16,-7.68 -48.64,-7.68l-362.24,0z"/>
  <path id="svg_7" fill="#231C1C" d="m311.23772,464.55229l25.6,0l0,384l-25.6,0l0,-384z"/>
  <path id="svg_8" fill="#231C1C" d="m452.03772,490.15229l25.6,0l0,345.6l-25.6,0l0,-345.6z"/>
  <path id="svg_9" fill="#231C1C" d="m80.83772,374.95229l486.4,0l0,25.6l-486.4,0l0,-25.6z"/>
  <path id="svg_10" fill="#231C1C" d="m171.63769,490.55229l25.6,0l0,345.6l-25.6,0l0,-345.6z"/>
  <rect rx="50" stroke="null" id="svg_18" height="243.47827" width="223.18841" y="534.78261" x="210.50725" fill="#9cbbc1"/>
  <g transform="rotate(85 650.125 316.166)" id="svg_20">
   <path stroke="null" id="svg_1" fill="#EEBE00" d="m560.52466,277.09722l179.2,0l0,76.8l-179.2,0l0,-76.8z"/>
   <path stroke="null" id="svg_2" fill="#231C1C" d="m752.52466,366.69722l-204.8,0l0,-102.4l204.8,0l0,102.4zm-179.2,-25.6l153.6,0l0,-51.2l-153.6,0l0,51.2z"/>
   <path stroke="null" filter="url(#svg_6_blur)" id="svg_6" fill="#231C1C" d="m355.72466,329.63467l588.8,0l0,38.4l-588.8,0l0,-38.4z"/>
  </g>
  <g stroke="null">
   <path stroke="null" d="m367.34514,615.28067l-24.36628,-36.02427c0.94573,-0.76326 1.54808,-1.90087 1.54808,-3.17435l0,-21.12028c0,-2.29671 -1.95474,-4.15945 -4.36489,-4.15945l-33.22482,0c-2.41087,0 -4.36489,1.86274 -4.36489,4.15945l0,21.12028c0,1.27348 0.60235,2.41179 1.54881,3.17504l-24.36628,36.02358c-0.45395,0.67244 -0.69547,1.45442 -0.69547,2.25373l0,31.56743l0,48.68494l0,48.99759c0,9.32201 7.9572,16.90607 17.73892,16.90607c5.33099,0 10.12145,-2.25303 13.37621,-5.81144c3.25475,3.55841 8.04522,5.81144 13.37621,5.81144c5.33099,0 10.12145,-2.25303 13.37621,-5.81144c3.25475,3.55841 8.04522,5.81144 13.37621,5.81144c9.78099,0 17.73892,-7.58406 17.73892,-16.90607l0,-48.99759l0,-48.68494l0,-31.56743c-0.00145,-0.8 -0.24298,-1.58198 -0.69693,-2.25373zm-56.04375,-56.15946l24.49504,0l0,12.80139l-0.15786,0l-24.17713,0l-0.16005,0l0,-12.80139zm2.53964,21.12028l19.41795,0l26.05185,38.51648l0,26.18441l-71.52165,0l0,-26.18441l26.05185,-38.51648zm45.4698,113.38513l-71.52165,0l0,-40.36604l71.52165,0l0,40.36604zm-9.00914,61.74421c-4.9687,0 -9.01132,-3.85234 -9.01132,-8.58718c0,-2.2974 -1.95402,-4.15945 -4.36489,-4.15945c-2.41015,0 -4.36489,1.86205 -4.36489,4.15945c0,4.73484 -4.04262,8.58718 -9.01132,8.58718c-4.9687,0 -9.01132,-3.85234 -9.01132,-8.58718c0,-2.2974 -1.95474,-4.15945 -4.36489,-4.15945c-2.41087,0 -4.36489,1.86205 -4.36489,4.15945c0,4.73484 -4.04262,8.58718 -9.01132,8.58718c-4.96797,0 -9.00914,-3.85234 -9.00914,-8.58718l0,-44.83814l71.52165,0l0,44.83814c0.00145,4.73484 -4.03971,8.58718 -9.00768,8.58718z"/>
  </g>
 </g>
</svg>