<svg width="750" height="1000" xmlns="http://www.w3.org/2000/svg" version="1.1" class="icon">
 <defs>
  <filter id="svg_6_blur">
   <feGaussianBlur stdDeviation="0" in="SourceGraphic"/>
  </filter>
 </defs>
 <g>
  <title>Layer 1</title>
  <path id="svg_3" fill="#6FB0BE" d="m567.23772,925.35229c0,42.24 -21.76,51.2 -64,51.2l-358.4,0c-42.24,0 -64,-8.96 -64,-51.2l0,-588.8c0,-42.24 34.56,-38.4 76.8,-38.4l332.8,0c42.24,0 76.8,-3.84 76.8,38.4l0,588.8z"/>
  <path id="svg_4" fill="#231C1C" d="m503.23772,989.35229l-358.4,0c-39.68,0 -76.8,-7.68 -76.8,-64l0,-588.8c0,-16.64 3.84,-28.16 12.8,-37.12c15.36,-15.36 38.4,-15.36 66.56,-14.08l353.28,0c28.16,0 51.2,0 66.56,14.08c8.96,8.96 12.8,20.48 12.8,37.12l0,588.8c0,56.32 -37.12,64 -76.8,64zm-364.8,-678.4c-17.92,0 -33.28,1.28 -39.68,7.68c-3.84,2.56 -5.12,8.96 -5.12,17.92l0,588.8c0,30.72 10.24,38.4 51.2,38.4l358.4,0c40.96,0 51.2,-7.68 51.2,-38.4l0,-588.8c0,-8.96 -1.28,-15.36 -5.12,-17.92c-7.68,-7.68 -28.16,-7.68 -48.64,-7.68l-362.24,0z"/>
  <path id="svg_7" fill="#231C1C" d="m311.23772,464.55229l25.6,0l0,384l-25.6,0l0,-384z"/>
  <path id="svg_8" fill="#231C1C" d="m452.03772,490.15229l25.6,0l0,345.6l-25.6,0l0,-345.6z"/>
  <path id="svg_9" fill="#231C1C" d="m80.83772,374.95229l486.4,0l0,25.6l-486.4,0l0,-25.6z"/>
  <path id="svg_10" fill="#231C1C" d="m171.63769,490.55229l25.6,0l0,345.6l-25.6,0l0,-345.6z"/>
  <rect rx="50" stroke="null" id="svg_18" height="243.47827" width="223.18841" y="534.78261" x="211.63084" fill="#9cbbc1"/>
  <g transform="rotate(85 647.78 314.407)" filter="url(#svg_20_blur)" id="svg_20">
   <path stroke="null" id="svg_1" fill="#EEBE00" d="m558.17975,275.33855l179.2,0l0,76.8l-179.2,0l0,-76.8z"/>
   <path stroke="null" id="svg_2" fill="#231C1C" d="m750.17975,364.93855l-204.8,0l0,-102.4l204.8,0l0,102.4zm-179.2,-25.6l153.6,0l0,-51.2l-153.6,0l0,51.2z"/>
   <path stroke="null" filter="url(#svg_6_blur)" id="svg_6" fill="#231C1C" d="m353.37975,327.87599l588.8,0l0,38.4l-588.8,0l0,-38.4z"/>
  </g>
  <g stroke="null">
   <g stroke="null">
    <g stroke="null">
     <g stroke="null">
      <path stroke="null" d="m313.50041,705.86127c0.74594,1.11891 1.2102,3.8999 0.23865,5.71259c-0.23213,0.43426 -0.94156,1.76053 -3.80861,1.76053l-14.01707,0l3.95206,-3.95206l-4.32177,-4.32177l-11.04308,11.04308l10.75879,14.34701l4.89036,-3.66451l-5.50198,-7.3388l15.2827,0c5.67868,0 8.20341,-3.12396 9.19974,-4.98817c2.15502,-4.02509 1.32953,-9.18149 -0.54381,-11.99051l-5.08597,3.3926z"/>
      <path stroke="null" d="m284.809,685.82645l-17.66854,0l0,6.11295l8.92132,0l-8.16103,10.20259c-2.5645,2.69883 -3.33783,7.48225 -1.78792,11.2237c1.60143,3.86338 5.31549,6.0823 10.19607,6.0823l3.0568,0l0,-6.1136l-3.05615,0c-2.38389,0 -3.91229,-0.77659 -4.54803,-2.31086c-0.73355,-1.76966 -0.13758,-3.96445 0.59597,-4.698l8.59464,-10.71836l1.56165,6.24466l5.92646,-1.4795l-3.63125,-14.54588z"/>
      <path stroke="null" d="m312.74273,691.70661l-6.38159,-10.6336l-0.43687,-0.69378c-1.45472,-2.36889 -4.16919,-6.77934 -11.27521,-6.77934c-7.10602,0 -9.82049,4.41045 -11.27521,6.7826l-0.43687,0.69378l5.08597,3.38934c0.17736,-0.26604 0.36058,-0.56533 0.55946,-0.88026c1.21933,-1.99266 2.37802,-3.87251 6.06731,-3.87251s4.84732,1.87985 6.06731,3.87251c0.19561,0.3182 0.3821,0.61423 0.47991,0.75833l6.39398,10.65185l-9.88439,0l0,6.11295l17.17103,0l6.9567,-13.916l-5.46807,-2.73534l-3.62343,7.24947z"/>
      <rect stroke="null" height="6.11295" width="6.11295" y="713.33439" x="337.43905"/>
      <rect stroke="null" height="6.11295" width="6.11295" y="701.10849" x="337.43905"/>
      <path stroke="null" d="m380.36727,611.74925c10.7953,-5.59979 18.20126,-16.86261 18.20126,-29.84358c0,-6.74283 -5.48307,-12.2259 -12.2259,-12.2259c-3.41738,0 -6.51331,1.40908 -8.73223,3.6769c-2.75099,-4.05835 -7.40009,-6.73305 -12.66277,-6.73305c-5.26268,0 -9.91243,2.6747 -12.66277,6.7337c-2.21892,-2.26782 -5.31549,-3.6769 -8.73223,-3.6769c-6.74283,0 -12.2259,5.48307 -12.2259,12.2259c0,12.98423 7.40922,24.24705 18.21039,29.84618c-7.0206,2.17654 -13.49739,5.8743 -19.09718,10.87159c-6.72718,-5.13814 -14.47872,-8.96175 -22.91166,-11.1285c10.52014,-5.6852 17.68484,-16.81371 17.68484,-29.58928c0,-6.74283 -5.48307,-12.2259 -12.2259,-12.2259c-3.41738,0 -6.51331,1.40908 -8.73223,3.6769c-2.75099,-4.059 -7.40009,-6.7337 -12.66277,-6.7337c-5.26268,0 -9.91243,2.6747 -12.66277,6.7337c-2.21892,-2.26782 -5.31549,-3.6769 -8.73223,-3.6769c-6.74283,0 -12.2259,5.48307 -12.2259,12.2259c0,12.77622 7.16405,23.90473 17.68158,29.59254c-27.69247,7.11515 -48.24698,32.2216 -48.24698,62.10169l0,39.73384c0,23.59631 19.19499,42.79064 42.79064,42.79064l42.79064,0c17.02758,0 31.71691,-10.01937 38.60319,-24.45179l37.80834,0c15.16924,0 27.5086,-12.3387 27.5086,-27.50859l0,-42.79064c0,-23.28398 -15.3955,-43.04102 -36.54011,-49.62475zm-42.92822,-29.84292c0,-3.37109 2.74186,-6.11295 6.11295,-6.11295s6.11295,2.74186 6.11295,6.11295l6.11295,0c0,-5.05533 4.11377,-9.16975 9.16975,-9.16975c5.05598,0 9.1691,4.11377 9.1691,9.16975l6.11295,0c0,-3.37109 2.74186,-6.11295 6.11295,-6.11295s6.11295,2.74186 6.11295,6.11295c0,15.16924 -12.3387,27.50859 -27.5086,27.50859s-27.50794,-12.33935 -27.50794,-27.50859zm12.91968,36.03868c-2.74447,4.01335 -5.16226,9.82375 -6.93518,17.95088c-2.45431,-3.36196 -5.21769,-6.47027 -8.26471,-9.29494c4.51478,-3.88164 9.66139,-6.7976 15.19989,-8.65593zm-86.27506,-36.03868c0,-3.37109 2.74186,-6.11295 6.11295,-6.11295s6.11295,2.74186 6.11295,6.11295l6.11295,0c0,-5.05533 4.11377,-9.16975 9.16975,-9.16975c5.05598,0 9.1691,4.11377 9.1691,9.16975l6.11295,0c0,-3.37109 2.74186,-6.11295 6.11295,-6.11295s6.11295,2.74186 6.11295,6.11295c0,15.16924 -12.3387,27.50859 -27.5086,27.50859s-27.50794,-12.33935 -27.50794,-27.50859zm85.58063,131.42806c0.00065,20.22457 -16.45247,36.67769 -36.67704,36.67769l-42.79064,0c-20.22457,0 -36.67769,-16.45312 -36.67769,-36.67769l0,-39.73449c0,-26.46923 17.82242,-48.81491 42.08121,-55.784c-8.79026,10.08914 -14.57327,28.3393 -14.57327,49.67105l6.11295,0c0,-28.16521 11.19566,-51.96039 24.4518,-51.96039s24.4518,23.79453 24.4518,51.96039l6.11295,0c0,-21.33109 -5.78301,-39.58126 -14.57327,-49.67105c24.25944,6.96844 42.08121,29.31477 42.08121,55.784l0,39.73449zm61.13079,-9.1691l-0.00065,0c0,11.79489 -9.6001,21.39565 -21.39565,21.39565l-35.42446,0c1.1613,-3.87838 1.80356,-7.97715 1.80356,-12.2259l0,-39.73449c0,-10.88724 -2.74447,-21.13874 -7.54615,-30.13048c1.63468,-10.87225 5.9232,-27.94286 16.7159,-27.94286c11.31173,0 18.33885,19.90963 18.33885,51.96039l6.11295,0c0,-23.34527 -3.37761,-40.14658 -9.73768,-49.49369c18.07607,6.14946 31.13333,23.25072 31.13333,43.38074l0,42.79064z"/>
     </g>
    </g>
   </g>
  </g>
 </g>
</svg>